<?xml version="1.0" encoding="UTF-8"?>
<svg width="182px" height="75px" viewBox="0 0 182 75" version="1.1" xmlns="http://www.w3.org/2000/svg" xmlns:xlink="http://www.w3.org/1999/xlink">
    <!-- Generator: Sketch 63.1 (92452) - https://sketch.com -->
    <title>easy_recipes_logo</title>
    <desc>Created with Sketch.</desc>
    <g id="Symbols" stroke="none" stroke-width="1" fill="none" fill-rule="evenodd">
        <g id="header" fill="#FFFFFF">
            <g id="easy_recipes_logo">
                <g id="Group-2">
                    <path d="M100.392,47.072 C101.832,47.072 102.648,46.456 102.84,45.224 C102.888,44.904 102.912,44.448 102.912,43.856 L102.912,43.856 L97.344,43.856 C96.896,43.856 96.304,43.872 95.568,43.904 L95.568,43.904 L95.568,43.88 L95.592,42.152 L95.592,40.328 L100.896,40.328 C101.04,39.848 101.112,39.32 101.112,38.744 C101.112,38.168 101.04,37.656 100.896,37.208 L100.896,37.208 L97.224,37.208 C96.552,37.208 96.008,37.216 95.592,37.232 L95.592,37.232 L95.592,35.552 L95.568,33.824 L102.12,33.824 C102.344,33.232 102.456,32.664 102.456,32.12 C102.456,31.576 102.408,31.072 102.312,30.608 L102.312,30.608 L91.968,30.608 L91.8,30.776 L91.8,44.84 C91.8,45.528 91.996,46.072 92.388,46.472 C92.78,46.872 93.32,47.072 94.008,47.072 L94.008,47.072 L100.392,47.072 Z M116.976,47.216 C117.68,47.216 118.312,47.064 118.872,46.76 L118.872,46.76 L113.688,30.632 C113.128,30.52 112.376,30.464 111.432,30.464 C110.6,30.464 109.872,30.512 109.248,30.608 L109.248,30.608 L103.968,46.712 L104.088,46.904 C104.568,47.08 105.192,47.168 105.96,47.168 C106.648,47.168 107.184,47.12 107.568,47.024 L107.568,47.024 L108.6,43.544 C108.808,43.56 109.128,43.568 109.56,43.568 L113.167333,43.5673333 C113.485111,43.5651111 113.730667,43.5573333 113.904,43.544 L113.904,43.544 L114.36,45.128 C114.6,45.944 114.888,46.496 115.224,46.784 C115.56,47.072 116.144,47.216 116.976,47.216 Z M113.064,40.544 C112.968,40.544 112.82,40.54 112.62,40.532 C112.42,40.524 112.28,40.52 112.2,40.52 L112.2,40.52 L110.448,40.52 L109.488,40.544 L110.04,38.696 C110.68,36.328 111.064,34.8 111.192,34.112 L111.192,34.112 L111.336,34.112 C111.832,36.064 112.272,37.712 112.656,39.056 L112.656,39.056 L113.064,40.544 Z M125.376,47.36 C126.448,47.36 127.384,47.232 128.184,46.976 C128.984,46.72 129.652,46.364 130.188,45.908 C130.724,45.452 131.128,44.912 131.4,44.288 C131.672,43.664 131.808,42.976 131.808,42.224 C131.808,41.168 131.508,40.24 130.908,39.44 C130.308,38.64 129.4,37.984 128.184,37.472 L128.184,37.472 L125.304,36.248 C124.36,35.864 123.888,35.36 123.888,34.736 C123.888,34.368 124.048,34.04 124.368,33.752 C124.688,33.464 125.168,33.32 125.808,33.32 C127.056,33.32 128.496,33.712 130.128,34.496 C130.912,33.808 131.344,32.848 131.424,31.616 C129.6,30.704 127.792,30.248 126,30.248 C125.104,30.248 124.288,30.372 123.552,30.62 C122.816,30.868 122.18,31.216 121.644,31.664 C121.108,32.112 120.692,32.64 120.396,33.248 C120.1,33.856 119.952,34.528 119.952,35.264 C119.952,36.336 120.248,37.22 120.84,37.916 C121.432,38.612 122.28,39.208 123.384,39.704 L123.384,39.704 L126.216,40.904 C127.224,41.336 127.728,41.928 127.728,42.68 C127.728,43.128 127.572,43.504 127.26,43.808 C126.948,44.112 126.456,44.264 125.784,44.264 C124.248,44.264 122.624,43.744 120.912,42.704 C120.528,43.04 120.196,43.472 119.916,44 C119.636,44.528 119.472,45.056 119.424,45.584 C121.312,46.768 123.296,47.36 125.376,47.36 Z M138.912,47.144 C139.696,47.144 140.336,47.096 140.832,47 L140.832,47 L140.832,41.96 L145.488,30.944 L145.32,30.752 C144.808,30.56 144.2,30.464 143.496,30.464 C142.84,30.464 142.304,30.512 141.888,30.608 L141.888,30.608 L140.28,34.664 C139.736,36.04 139.336,37.232 139.08,38.24 L139.08,38.24 L138.936,38.24 C138.632,36.976 138.272,35.832 137.856,34.808 L137.856,34.808 L136.704,31.952 C136.48,31.392 136.22,30.996 135.924,30.764 C135.628,30.532 135.144,30.416 134.472,30.416 C133.8,30.416 133.096,30.632 132.36,31.064 L132.36,31.064 L136.992,41.864 L136.992,47 C137.488,47.096 138.128,47.144 138.912,47.144 Z M101.76,71.216 C102.336,71.216 102.864,71.108 103.344,70.892 C103.824,70.676 104.184,70.408 104.424,70.088 C103.896,69.704 103.496,69.112 103.224,68.312 L103.224,68.312 L102.504,66.272 C102.104,65.104 101.488,64.368 100.656,64.064 C101.04,63.92 101.412,63.708 101.772,63.428 C102.132,63.148 102.444,62.82 102.708,62.444 C102.972,62.068 103.184,61.644 103.344,61.172 C103.504,60.7 103.584,60.2 103.584,59.672 C103.584,58.808 103.444,58.048 103.164,57.392 C102.884,56.736 102.492,56.192 101.988,55.76 C101.484,55.328 100.872,55.004 100.152,54.788 C99.432,54.572 98.632,54.464 97.752,54.464 C97.208,54.464 96.46,54.472 95.508,54.488 C94.556,54.504 93.384,54.528 91.992,54.56 L91.992,54.56 L91.824,54.728 L91.824,71 C92.32,71.096 92.952,71.144 93.72,71.144 C94.488,71.144 95.128,71.096 95.64,71 L95.64,71 L95.64,65 L96.624,65 C97.216,65 97.66,65.128 97.956,65.384 C98.252,65.64 98.488,66.008 98.664,66.488 L98.664,66.488 L99.528,69.008 C99.8,69.824 100.096,70.396 100.416,70.724 C100.736,71.052 101.184,71.216 101.76,71.216 Z M95.64,62.048 L95.64,57.344 C95.864,57.36 96.124,57.368 96.42,57.368 L96.42,57.368 L97.416,57.368 C98.92,57.368 99.672,58.144 99.672,59.696 C99.672,60.272 99.592,60.712 99.432,61.016 C99.272,61.32 99.036,61.556 98.724,61.724 C98.412,61.892 98,61.988 97.488,62.012 C96.976,62.036 96.36,62.048 95.64,62.048 L95.64,62.048 Z M115.152,71.072 C116.592,71.072 117.408,70.456 117.6,69.224 C117.648,68.904 117.672,68.448 117.672,67.856 L117.672,67.856 L112.104,67.856 C111.656,67.856 111.064,67.872 110.328,67.904 L110.328,67.904 L110.328,67.88 L110.352,66.152 L110.352,64.328 L115.656,64.328 C115.8,63.848 115.872,63.32 115.872,62.744 C115.872,62.168 115.8,61.656 115.656,61.208 L115.656,61.208 L111.984,61.208 C111.312,61.208 110.768,61.216 110.352,61.232 L110.352,61.232 L110.352,59.552 L110.328,57.824 L116.88,57.824 C117.104,57.232 117.216,56.664 117.216,56.12 C117.216,55.576 117.168,55.072 117.072,54.608 L117.072,54.608 L106.728,54.608 L106.56,54.776 L106.56,68.84 C106.56,69.528 106.756,70.072 107.148,70.472 C107.54,70.872 108.08,71.072 108.768,71.072 L108.768,71.072 L115.152,71.072 Z M125.784,71.36 C126.408,71.36 127.028,71.292 127.644,71.156 C128.26,71.02 128.852,70.84 129.42,70.616 C129.988,70.392 130.516,70.124 131.004,69.812 C131.492,69.5 131.92,69.168 132.288,68.816 C132.208,68.384 131.996,67.932 131.652,67.46 C131.308,66.988 130.936,66.616 130.536,66.344 C129.736,66.92 128.996,67.34 128.316,67.604 C127.636,67.868 127.016,68 126.456,68 C125.384,68 124.568,67.568 124.008,66.704 C123.448,65.84 123.168,64.52 123.168,62.744 C123.168,60.952 123.392,59.596 123.84,58.676 C124.288,57.756 125.016,57.296 126.024,57.296 C127.784,57.296 128.664,58.48 128.664,60.848 L128.664,60.848 L128.664,61.136 C129.208,61.28 129.696,61.352 130.128,61.352 C131.584,61.352 132.312,60.64 132.312,59.216 C132.312,58.512 132.164,57.856 131.868,57.248 C131.572,56.64 131.148,56.112 130.596,55.664 C130.044,55.216 129.376,54.864 128.592,54.608 C127.808,54.352 126.936,54.224 125.976,54.224 C125.032,54.224 124.144,54.404 123.312,54.764 C122.48,55.124 121.756,55.664 121.14,56.384 C120.524,57.104 120.036,58.004 119.676,59.084 C119.316,60.164 119.136,61.424 119.136,62.864 C119.136,63.968 119.252,65.032 119.484,66.056 C119.716,67.08 120.092,67.984 120.612,68.768 C121.132,69.552 121.816,70.18 122.664,70.652 C123.512,71.124 124.552,71.36 125.784,71.36 Z M136.68,71.144 C137.464,71.144 138.112,71.096 138.624,71 L138.624,71 L138.624,54.608 C138.112,54.512 137.464,54.464 136.68,54.464 C135.896,54.464 135.256,54.512 134.76,54.608 L134.76,54.608 L134.76,71 C135.256,71.096 135.896,71.144 136.68,71.144 Z M144.24,71.144 C145.008,71.144 145.648,71.096 146.16,71 L146.16,71 L146.16,65.864 L148.056,65.864 C148.92,65.864 149.716,65.74 150.444,65.492 C151.172,65.244 151.792,64.88 152.304,64.4 C152.816,63.92 153.216,63.324 153.504,62.612 C153.792,61.9 153.936,61.08 153.936,60.152 C153.936,59.224 153.796,58.404 153.516,57.692 C153.236,56.98 152.84,56.384 152.328,55.904 C151.816,55.424 151.196,55.064 150.468,54.824 C149.74,54.584 148.936,54.464 148.056,54.464 C147.576,54.464 146.876,54.472 145.956,54.488 C145.036,54.504 143.88,54.528 142.488,54.56 L142.488,54.56 L142.32,54.728 L142.32,71 C142.816,71.096 143.456,71.144 144.24,71.144 Z M146.16,62.984 L146.16,57.392 C146.384,57.408 146.64,57.416 146.928,57.416 L146.928,57.416 L147.912,57.416 C148.28,57.416 148.6,57.492 148.872,57.644 C149.144,57.796 149.364,58 149.532,58.256 C149.7,58.512 149.824,58.808 149.904,59.144 C149.984,59.48 150.024,59.824 150.024,60.176 C150.024,60.544 149.984,60.896 149.904,61.232 C149.824,61.568 149.696,61.86 149.52,62.108 C149.344,62.356 149.112,62.556 148.824,62.708 C148.536,62.86 148.176,62.936 147.744,62.936 C147.664,62.936 147.492,62.94 147.228,62.948 C146.964,62.956 146.608,62.968 146.16,62.984 L146.16,62.984 Z M165.024,71.072 C166.464,71.072 167.28,70.456 167.472,69.224 C167.52,68.904 167.544,68.448 167.544,67.856 L167.544,67.856 L161.976,67.856 C161.528,67.856 160.936,67.872 160.2,67.904 L160.2,67.904 L160.2,67.88 L160.224,66.152 L160.224,64.328 L165.528,64.328 C165.672,63.848 165.744,63.32 165.744,62.744 C165.744,62.168 165.672,61.656 165.528,61.208 L165.528,61.208 L161.856,61.208 C161.184,61.208 160.64,61.216 160.224,61.232 L160.224,61.232 L160.224,59.552 L160.2,57.824 L166.752,57.824 C166.976,57.232 167.088,56.664 167.088,56.12 C167.088,55.576 167.04,55.072 166.944,54.608 L166.944,54.608 L156.6,54.608 L156.432,54.776 L156.432,68.84 C156.432,69.528 156.628,70.072 157.02,70.472 C157.412,70.872 157.952,71.072 158.64,71.072 L158.64,71.072 L165.024,71.072 Z M174.696,71.36 C175.768,71.36 176.704,71.232 177.504,70.976 C178.304,70.72 178.972,70.364 179.508,69.908 C180.044,69.452 180.448,68.912 180.72,68.288 C180.992,67.664 181.128,66.976 181.128,66.224 C181.128,65.168 180.828,64.24 180.228,63.44 C179.628,62.64 178.72,61.984 177.504,61.472 L177.504,61.472 L174.624,60.248 C173.68,59.864 173.208,59.36 173.208,58.736 C173.208,58.368 173.368,58.04 173.688,57.752 C174.008,57.464 174.488,57.32 175.128,57.32 C176.376,57.32 177.816,57.712 179.448,58.496 C180.232,57.808 180.664,56.848 180.744,55.616 C178.92,54.704 177.112,54.248 175.32,54.248 C174.424,54.248 173.608,54.372 172.872,54.62 C172.136,54.868 171.5,55.216 170.964,55.664 C170.428,56.112 170.012,56.64 169.716,57.248 C169.42,57.856 169.272,58.528 169.272,59.264 C169.272,60.336 169.568,61.22 170.16,61.916 C170.752,62.612 171.6,63.208 172.704,63.704 L172.704,63.704 L175.536,64.904 C176.544,65.336 177.048,65.928 177.048,66.68 C177.048,67.128 176.892,67.504 176.58,67.808 C176.268,68.112 175.776,68.264 175.104,68.264 C173.568,68.264 171.944,67.744 170.232,66.704 C169.848,67.04 169.516,67.472 169.236,68 C168.956,68.528 168.792,69.056 168.744,69.584 C170.632,70.768 172.616,71.36 174.696,71.36 Z" id="EASYRECIPES-Copy" fill-rule="nonzero"></path>
                    <path d="M56.25004,6.81823993 C55.2170847,6.81823993 54.1376272,6.95487 53.0166215,7.16309102 C49.2624107,2.786774 43.7050026,0 37.5000799,0 C31.2951572,0 25.7375893,2.786774 21.9835383,7.16293122 C20.8623728,6.95487 19.7829153,6.81808013 18.7501199,6.81808013 C8.41113879,6.81823993 7.10542736e-14,15.2293787 7.10542736e-14,25.5682 C7.10542736e-14,32.6526688 3.99503125,39.0929788 10.2672303,42.2773383 L10.2339916,68.0369801 C10.2323936,69.8962677 10.9546953,71.6441738 12.2681018,72.9591782 C13.5831062,74.2759405 15.3292545,75 17.1887018,75 L57.8181696,75 C61.6533996,75 64.7728798,71.8805198 64.7728798,68.0452898 L64.7728798,42.2524093 C71.0217479,39.0597401 75.0001598,32.6293378 75.0001598,25.5682 C75.0001598,15.2293787 66.5888612,6.81823993 56.25004,6.81823993 Z M61.3636799,68.0454496 C61.3636799,69.9996591 59.7723791,71.5911197 57.8180098,71.5911197 L17.188542,71.5911197 C16.2414,71.5911197 15.3508277,71.2214994 14.679982,70.5508136 C14.0107344,69.879968 13.6412739,68.9893956 13.6428667,68.0406556 L13.6518208,61.3636799 L61.3636799,61.3636799 L61.3636799,68.0454496 Z M62.4190074,39.5990693 C62.3290393,39.6356638 62.2441848,39.6789699 62.1642842,39.7305857 C61.9495113,39.8637002 61.7730907,40.0402806 61.6415743,40.2432282 C61.5084599,40.4445777 61.4184918,40.6777278 61.3818973,40.9273373 C61.366876,41.0222592 61.3619221,41.1171812 61.3635201,41.2137011 L61.3635201,57.9544801 L13.6561354,57.9544801 L13.6780282,41.2368723 C13.6796262,41.1437082 13.6746724,41.0487863 13.6614089,40.9572201 C13.6248144,40.6991411 13.5298924,40.4594392 13.3916643,40.251378 C13.2617459,40.0565803 13.092037,39.8868714 12.8855738,39.756953 C12.8007193,39.7037391 12.7107512,39.6570772 12.6175871,39.6187249 C7.02294533,37.1721677 3.40904006,31.6622206 3.40904006,25.5682 C3.40904006,17.1086414 10.2905613,10.22728 18.74996,10.22728 C19.0805888,10.22728 19.4295948,10.2672303 19.7720488,10.2942367 C18.0474738,13.291469 17.0453601,16.7550012 17.0453601,20.45456 C17.0453601,21.3967482 17.8077719,22.1591599 18.74996,22.1591599 C19.6921482,22.1591599 20.45456,21.3967482 20.45456,20.45456 C20.45456,11.0561691 28.101689,3.40904006 37.5000799,3.40904006 C46.8984708,3.40904006 54.54544,11.0561691 54.54544,20.45456 C54.54544,21.3967482 55.3078518,22.1591599 56.25004,22.1591599 C57.1922281,22.1591599 57.9546399,21.3967482 57.9546399,20.45456 C57.9546399,16.7550012 56.9525262,13.2916288 55.2279512,10.2942367 C55.5704052,10.2672303 55.9194112,10.22728 56.25004,10.22728 C64.7095985,10.22728 71.5909599,17.1088012 71.5909599,25.5682 C71.5909599,31.6406475 67.992076,37.1437231 62.4190074,39.5990693 Z M20.45456,35.79548 C20.45456,34.8532918 19.6921482,34.09088 18.74996,34.09088 C17.8077719,34.09088 17.0453601,34.8532918 17.0453601,35.79548 C17.0453601,40.271513 21.9825795,46.4173092 22.5452397,47.1047742 C22.8832194,47.5143448 23.3725308,47.7273599 23.8651981,47.7273599 C24.244726,47.7273599 24.6276098,47.6007973 24.9454545,47.3411203 C25.6728698,46.7434636 25.7776994,45.6699188 25.1818006,44.9407457 C23.3543135,42.7135957 20.45456,38.2623319 20.45456,35.79548 Z M56.25004,34.09088 C55.3078518,34.09088 54.54544,34.8532918 54.54544,35.79548 C54.54544,38.2540222 51.6456865,42.7102399 49.8180396,44.9425035 C49.2221408,45.6699188 49.3285684,46.7436234 50.0561435,47.3411203 C50.3723902,47.6007973 50.755274,47.7273599 51.1364,47.7273599 C51.6290672,47.7273599 52.1167806,47.5143448 52.4547603,47.1047742 C53.0174205,46.4173092 57.9546399,40.2716728 57.9546399,35.79548 C57.9546399,34.8532918 57.1922281,34.09088 56.25004,34.09088 Z M37.5000799,34.09088 C36.5578917,34.09088 35.79548,34.8532918 35.79548,35.79548 L35.79548,46.02276 C35.79548,46.9649481 36.5578917,47.7273599 37.5000799,47.7273599 C38.4422681,47.7273599 39.2046798,46.9649481 39.2046798,46.02276 L39.2046798,35.79548 C39.20452,34.8532918 38.4421083,34.09088 37.5000799,34.09088 Z" id="Shape-Copy-2" fill-rule="nonzero"></path>
                </g>
            </g>
        </g>
    </g>
</svg>