<?xml version="1.0" encoding="UTF-8"?>
<svg width="26px" height="26px" viewBox="0 0 26 26" version="1.1" xmlns="http://www.w3.org/2000/svg" xmlns:xlink="http://www.w3.org/1999/xlink">
    <!-- Generator: Sketch 63.1 (92452) - https://sketch.com -->
    <title>ico_lkd</title>
    <desc>Created with Sketch.</desc>
    <g id="desktop" stroke="none" stroke-width="1" fill="none" fill-rule="evenodd">
        <g id="DETALL-Copy" transform="translate(-1147.000000, -2749.000000)" fill="#FFFFFF" fill-rule="nonzero">
            <path d="M1152.81425,2757.125 L1152.81425,2775 L1147,2775 L1147,2757.125 L1152.81425,2757.125 Z M1160.93925,2757.125 L1160.93925,2760.54237 C1161.64775,2759.59013 1163.79762,2757.125 1167.18737,2757.125 C1167.58388,2757.125 1167.92188,2757.16887 1168.23062,2757.23063 C1168.31025,2757.24363 1168.38825,2757.25825 1168.46625,2757.27612 C1168.53125,2757.294 1168.58975,2757.31513 1168.6515,2757.33462 C1171.14912,2757.98625 1173,2760.23688 1173,2762.93763 L1173,2762.93763 L1173,2775 L1167.18737,2775 L1167.18737,2775 L1167.18737,2763.625 C1165.33325,2759.13025 1160.93925,2765.25 1160.93925,2765.25 L1160.93925,2765.25 L1160.93925,2775 L1155.125,2775 L1155.125,2757.125 L1160.93925,2757.125 Z M1149.84375,2749 C1151.41431,2749 1152.6875,2750.27319 1152.6875,2751.84375 C1152.6875,2753.41431 1151.41431,2754.6875 1149.84375,2754.6875 C1148.27319,2754.6875 1147,2753.41431 1147,2751.84375 C1147,2750.27319 1148.27319,2749 1149.84375,2749 Z" id="ico_lkd"></path>
        </g>
    </g>
</svg>