<?xml version="1.0" encoding="UTF-8"?>
<svg width="32px" height="26px" viewBox="0 0 32 26" version="1.1" xmlns="http://www.w3.org/2000/svg" xmlns:xlink="http://www.w3.org/1999/xlink">
    <!-- Generator: Sketch 63.1 (92452) - https://sketch.com -->
    <title>ico_twitter</title>
    <desc>Created with Sketch.</desc>
    <g id="desktop" stroke="none" stroke-width="1" fill="none" fill-rule="evenodd">
        <g id="DETALL-Copy" transform="translate(-1050.000000, -2749.000000)" fill="#FFFFFF" fill-rule="nonzero">
            <path d="M1082,2752.078 C1080.81,2752.6 1079.542,2752.946 1078.22,2753.114 C1079.58,2752.302 1080.618,2751.026 1081.106,2749.488 C1079.838,2750.244 1078.438,2750.778 1076.946,2751.076 C1075.742,2749.794 1074.026,2749 1072.154,2749 C1068.522,2749 1065.598,2751.948 1065.598,2755.562 C1065.598,2756.082 1065.642,2756.582 1065.75,2757.058 C1060.296,2756.792 1055.47,2754.178 1052.228,2750.196 C1051.662,2751.178 1051.33,2752.302 1051.33,2753.512 C1051.33,2755.784 1052.5,2757.798 1054.244,2758.964 C1053.19,2758.944 1052.156,2758.638 1051.28,2758.156 C1051.28,2758.176 1051.28,2758.202 1051.28,2758.228 C1051.28,2761.416 1053.554,2764.064 1056.536,2764.674 C1056.002,2764.82 1055.42,2764.89 1054.816,2764.89 C1054.396,2764.89 1053.972,2764.866 1053.574,2764.778 C1054.424,2767.376 1056.836,2769.286 1059.704,2769.348 C1057.472,2771.094 1054.638,2772.146 1051.57,2772.146 C1051.032,2772.146 1050.516,2772.122 1050,2772.056 C1052.906,2773.93 1056.35,2775 1060.064,2775 C1072.136,2775 1078.736,2765 1078.736,2756.332 C1078.736,2756.042 1078.726,2755.762 1078.712,2755.484 C1080.014,2754.56 1081.108,2753.406 1082,2752.078 Z" id="ico_twitter"></path>
        </g>
    </g>
</svg>