<?xml version="1.0" encoding="UTF-8"?>
<svg width="15px" height="26px" viewBox="0 0 15 26" version="1.1" xmlns="http://www.w3.org/2000/svg" xmlns:xlink="http://www.w3.org/1999/xlink">
    <!-- Generator: Sketch 63.1 (92452) - https://sketch.com -->
    <title>ico_facebook</title>
    <desc>Created with Sketch.</desc>
    <g id="desktop" stroke="none" stroke-width="1" fill="none" fill-rule="evenodd">
        <g id="DETALL-Copy" transform="translate(-1242.000000, -2749.000000)" fill="#FFFFFF" fill-rule="nonzero">
            <path d="M1255.52758,2749.00541 L1252.15597,2749 C1248.36807,2749 1245.92016,2751.51147 1245.92016,2755.39864 L1245.92016,2758.34883 L1242.53015,2758.34883 C1242.23722,2758.34883 1242,2758.58632 1242,2758.87926 L1242,2763.15376 C1242,2763.4467 1242.23749,2763.68392 1242.53015,2763.68392 L1245.92016,2763.68392 L1245.92016,2774.46985 C1245.92016,2774.76278 1246.15738,2775 1246.45032,2775 L1250.87332,2775 C1251.16626,2775 1251.40347,2774.76251 1251.40347,2774.46985 L1251.40347,2763.68392 L1255.36719,2763.68392 C1255.66012,2763.68392 1255.89734,2763.4467 1255.89734,2763.15376 L1255.89896,2758.87926 C1255.89896,2758.73861 1255.84297,2758.6039 1255.7437,2758.50436 C1255.64443,2758.40483 1255.50919,2758.34883 1255.36854,2758.34883 L1251.40347,2758.34883 L1251.40347,2755.84791 C1251.40347,2754.64587 1251.68992,2754.03565 1253.25577,2754.03565 L1255.52704,2754.03484 C1255.81971,2754.03484 1256.05693,2753.79735 1256.05693,2753.50469 L1256.05693,2749.53556 C1256.05693,2749.24317 1255.81998,2749.00595 1255.52758,2749.00541 Z" id="ico_facebook"></path>
        </g>
    </g>
</svg>